# xmcd
#
# Track frame offsets:
#	150
#	19945
#	42420
#	59445
#	79780
#	94410
#	114370
#	127383
#	141950
#	159650
#	183738
#	200585
#
# Disc length: 2847 seconds
#
# Revision: 1
# Processed by: cddbd v1.5.1PL0 Copyright (c) Steve Scherf et al.
# Submitted via: CDex 1.50Beta5
#
DISCID=b60b1d0c
DTITLE=立花ハジメ - 決定版・立花ハジメ・ベスト・セレクション
DYEAR=1990
DGENRE=Pop
TTITLE0=REPLICANT J.R.Remix Edit Version
TTITLE1=AB1013
TTITLE2=MA TICARICA
TTITLE3=ROCK
TTITLE4=H
TTITLE5=ARPANGEMENT
TTITLE6=MR.TECHIE&MISS KIPPLE
TTITLE7=THEME FROM ”Hm”
TTITLE8=ROBIN’S EYE VIEW OF CONVERSATION
TTITLE9=REPLICANT J.B.Remix Version
TTITLE10=ALPS
TTITLE11=DAPANPIS
EXTD=
EXTT0=
EXTT1=
EXTT2=
EXTT3=
EXTT4=
EXTT5=
EXTT6=
EXTT7=
EXTT8=
EXTT9=
EXTT10=
EXTT11=
PLAYORDER=
